<svg version="1.1"
    xmlns="http://www.w3.org/2000/svg" width="40" height="32" viewBox="0 0 40 32">
    <path d="M39.73 3.236h-39.191c-0.298 0-0.539-0.241-0.539-0.539v-2.157c0-0.298 0.241-0.539 0.539-0.539h39.191c0.298 0 0.539 0.241 0.539 0.539v2.157c0 0.298-0.241 0.539-0.539 0.539zM39.73 17.618h-39.191c-0.298 0-0.539-0.241-0.539-0.539v-2.157c0-0.298 0.241-0.539 0.539-0.539h39.191c0.298 0 0.539 0.241 0.539 0.539v2.157c0 0.298-0.241 0.539-0.539 0.539zM39.73 32h-39.191c-0.298 0-0.539-0.241-0.539-0.539v-2.157c0-0.298 0.241-0.539 0.539-0.539h39.191c0.298 0 0.539 0.241 0.539 0.539v2.157c0 0.298-0.241 0.539-0.539 0.539z"></path>
</svg>
