<svg version="1.1"
    xmlns="http://www.w3.org/2000/svg" width="37" height="32" viewBox="0 0 37 32">
    <path d="M33.093 2.193c-3.893-3.314-9.714-2.764-13.329 0.964l-1.407 1.457-1.407-1.45c-2.914-3.014-8.793-4.829-13.329-0.971-4.486 3.829-4.721 10.7-0.707 14.843l13.821 14.271c0.443 0.457 1.029 0.693 1.614 0.693s1.171-0.229 1.614-0.693l13.821-14.271c4.029-4.143 3.793-11.014-0.693-14.843zM32.157 15.45l-13.771 14.271-13.829-14.271c-2.743-2.829-3.314-8.221 0.55-11.514 3.914-3.343 8.514-0.921 10.2 0.821l3.050 3.15 3.050-3.15c1.657-1.714 6.3-4.143 10.2-0.821 3.857 3.286 3.293 8.679 0.55 11.514z"></path>
</svg>
